<?xml version="1.0" encoding="utf-8"?>
<!-- Generator: Adobe Illustrator 25.2.1, SVG Export Plug-In . SVG Version: 6.00 Build 0)  -->
<svg version="1.1" id="Layer_2_1_" xmlns="http://www.w3.org/2000/svg" xmlns:xlink="http://www.w3.org/1999/xlink" x="0px" y="0px"
	 viewBox="0 0 689.5 205.9" style="enable-background:new 0 0 689.5 205.9;" xml:space="preserve">
<style type="text/css">
	.st0{clip-path:url(#SVGID_2_);}
	.st1{clip-path:url(#SVGID_6_);}
	.st2{clip-path:url(#SVGID_8_);}
	.st3{clip-path:url(#SVGID_10_);}
	.st4{fill:#212529;}
	.st5{fill:#FFFFFF;}
	.st6{display:none;}
	.st7{display:inline;fill:#FFFFFF;}
</style>
<g>
	<g>
		<defs>
			<rect id="SVGID_1_" x="-0.2" width="205.8" height="205.8"/>
		</defs>
		<clipPath id="SVGID_2_">
			<use xlink:href="#SVGID_1_"  style="overflow:visible;"/>
		</clipPath>
		<g class="st0">
			<g>
				<defs>
					<rect id="SVGID_3_" x="-0.2" y="0" width="205.8" height="205.8"/>
				</defs>
				<clipPath id="SVGID_4_">
					<use xlink:href="#SVGID_3_"  style="overflow:visible;"/>
				</clipPath>
				<g style="clip-path:url(#SVGID_4_);">
					
						<image style="overflow:visible;" width="430" height="429" xlink:href="8AB28EB36EE61586.jpg"  transform="matrix(0.48 0 0 0.48 -0.48 -2.000610e-02)">
					</image>
				</g>
			</g>
		</g>
	</g>
</g>
<g>
	<g>
		<g>
			<defs>
				<polygon id="SVGID_5_" points="7.5,7.5 7.5,165.8 102.7,198 198,165.8 198,7.5 				"/>
			</defs>
			<clipPath id="SVGID_6_">
				<use xlink:href="#SVGID_5_"  style="overflow:visible;"/>
			</clipPath>
			<g class="st1">
				<g>
					<g>
						<defs>
							<rect id="SVGID_7_" x="2.5" y="2.5" width="200.5" height="200.5"/>
						</defs>
						<clipPath id="SVGID_8_">
							<use xlink:href="#SVGID_7_"  style="overflow:visible;"/>
						</clipPath>
						<g class="st2">
							<g>
								<defs>
									<rect id="SVGID_9_" x="2.5" y="2.5" width="200.5" height="200.5"/>
								</defs>
								<clipPath id="SVGID_10_">
									<use xlink:href="#SVGID_9_"  style="overflow:visible;"/>
								</clipPath>
								<g class="st3">
									
										<image style="overflow:visible;enable-background:new    ;" width="431" height="429" xlink:href="8AB28EB36EE61586.jpg"  transform="matrix(0.4672 0 0 0.4672 2.1559 2.4791)">
									</image>
								</g>
							</g>
						</g>
					</g>
				</g>
			</g>
		</g>
	</g>
	<path class="st4" d="M102.7,205.9L0,171.1V0h205.5v171.1L102.7,205.9z M15,160.4l87.7,29.7l87.7-29.7V15H15V160.4z"/>
	<rect x="111.9" y="76.6" class="st5" width="57.4" height="15.7"/>
	<rect x="111.9" y="101.9" class="st5" width="28.7" height="15.7"/>
	<rect x="87" y="33.2" class="st4" width="15.7" height="127.8"/>
	<rect x="62.1" y="56.1" class="st4" width="15.7" height="82"/>
	<rect x="37.2" y="76.6" class="st4" width="15.7" height="41.1"/>
	<path class="st4" d="M265,48.4h61.5v15.5h-43.2v75.7H265V48.4z M295.1,103l-8.5-16.9h28.9V103H295.1z"/>
	<rect x="340.2" y="48.5" class="st4" width="19" height="91"/>
	<path class="st4" d="M417.7,48.5v91H399V64.4h-26.8V48.5H417.7z M420.4,48.5h24v15.9h-16.1L420.4,48.5z"/>
	<path class="st4" d="M501.6,48.5v91h-18.7V64.4h-26.8V48.5H501.6z M504.4,48.5h24v15.9h-16.1L504.4,48.5z"/>
	<path class="st4" d="M602.4,48.5l0.1,15.2h-42.8l-0.1,60.7h42.8v15.1h-61v-91H602.4z M591.6,103.2h-20.3l-8.5-16.9h28.7
		L591.6,103.2L591.6,103.2z"/>
	<path class="st4" d="M668.8,109.6c-2.1,1-4,1.6-5.8,2.1c-1.8,0.4-3.9,0.7-6.5,0.8c-2.6,0.1-5.7,0.2-9.5,0.1
		c-3.8,0-8.6-0.1-14.6-0.1v26.9h-18.3v-91h41.2c4.4,0,8.6,0.8,12.4,2.5c3.9,1.7,7.2,4,10.1,6.9c2.9,2.9,5.2,6.3,6.9,10.3
		c1.7,3.9,2.5,8.1,2.5,12.5c0,6.5-1.7,12.3-5.1,17.4C678.7,103.3,674.3,107.1,668.8,109.6z M632.4,94.4h22.9c3.9,0,7.2-1.4,9.9-4.1
		s4-6.4,4-11c0-1.9-0.4-3.7-1.1-5.5c-0.7-1.8-1.7-3.4-3-4.7c-1.3-1.4-2.7-2.5-4.4-3.3s-3.5-1.2-5.4-1.2h-22.9V94v0.1V94.4z
		 M689.5,139.5h-23.1l-13.9-17.2l15.2-9.9L689.5,139.5z"/>
</g>
<g class="st6">
	<path class="st7" d="M117.4-572.5c2.1,2.1,4.4,4.4,6.9,7c2.5,2.5,5.1,5.1,7.8,7.8s5.3,5.3,7.9,7.9c2.6,2.5,5,4.9,7.3,7.2
		c2.3,2.2,4.2,4.2,5.8,5.8v20.5l-17.2-17.2c-3.4,2.4-7.1,4.2-11.1,5.5c-4,1.3-8.2,1.9-12.6,1.9c-5.7,0-11-1.1-15.8-3.2
		c-4.8-2.1-9-5.1-12.6-8.8s-6.4-8.1-8.4-13s-3-10.3-3-16c0-5.6,1-10.9,3-15.9s4.8-9.3,8.4-13s7.8-6.6,12.6-8.7
		c4.8-2.1,10.1-3.2,15.8-3.2s11,1.1,16,3.2c5,2.1,9.3,5.1,13,8.8s6.6,8.1,8.8,13c2.2,5,3.3,10.3,3.3,15.9c0,2.1-0.2,4.1-0.5,6
		c-0.3,2-0.8,3.9-1.4,5.7l-16.4-2.3c0.6-1.5,1.1-3,1.4-4.6c0.3-1.5,0.5-3.2,0.5-4.9c0-3.6-0.6-7-1.9-10.2c-1.3-3.2-3.1-6-5.3-8.3
		c-2.2-2.4-4.8-4.2-7.8-5.6c-3-1.4-6.2-2.1-9.6-2.1s-6.6,0.7-9.4,2c-2.9,1.4-5.3,3.2-7.4,5.6c-2.1,2.4-3.7,5.1-4.8,8.3
		c-1.2,3.2-1.8,6.6-1.8,10.1c0,3.6,0.6,7.1,1.8,10.2c1.2,3.2,2.8,6,4.8,8.4c2.1,2.4,4.5,4.3,7.4,5.6c2.9,1.4,6,2,9.4,2
		c2.3,0,4.5-0.3,6.7-1s4.2-1.6,6.1-2.9l-12.8-12.8v-20.3C113.6-576.4,115.3-574.7,117.4-572.5z"/>
	<path class="st7" d="M176.9-560.2c0,2.7,0.5,5.3,1.4,7.7s2.3,4.5,3.9,6.3c1.7,1.8,3.6,3.2,5.9,4.3c2.2,1.1,4.6,1.6,7.1,1.6v14
		c-4.8,0-9.3-0.9-13.5-2.7s-7.9-4.2-11-7.4c-3.2-3.1-5.6-6.8-7.4-11c-1.8-4.2-2.7-8.7-2.7-13.5v-46.3h16.2v46.3v0.2v0.5H176.9z
		 M229.6-607.1v46.3c0,4-0.7,7.9-2,11.5s-3.2,6.9-5.5,9.8c-2.3,2.9-5.1,5.4-8.3,7.5s-6.7,3.6-10.4,4.6l-7.1-13.1
		c2.4-0.2,4.6-0.8,6.6-1.9c2.1-1.1,3.9-2.5,5.4-4.3c1.6-1.8,2.8-3.8,3.7-6.2c0.9-2.3,1.3-4.8,1.3-7.4c0-0.1,0-0.1-0.1-0.2
		c0,0-0.1-0.1-0.1-0.2c0-0.2,0-0.3,0.1-0.1c0,0.2,0.1,0,0.1-0.4s0-1.3,0-2.7s0-3.8,0-7.2s0-8,0-13.7c0-5.8,0-13.2,0-22.4h16.3
		V-607.1z"/>
	<path class="st7" d="M285.8-541.4h-36.5l-6,14.1h-17.1l32.7-79.9h17.2L255-555.7h25L268.7-583l12.9-11.1l27.3,66.8h-17.1
		L285.8-541.4z"/>
	<path class="st7" d="M329.5-607.1L381-533v5.7h-16.7l-34.8-50.2v50.2h-16.7v-79.9h16.7V-607.1z M364.3-607.1H381v59.8l-16.7-12
		V-607.1z"/>
	<path class="st7" d="M427.7-607.1v79.9h-16.4v-65.9h-23.5V-607L427.7-607.1L427.7-607.1z M430.1-607.1h21.1v13.9h-14.1L430.1-607.1
		z"/>
	<path class="st7" d="M474.7-607.1v79.9H458v-79.9H474.7z"/>
	<path class="st7" d="M482.7-607.2h54v13.6h-37.9v66.4h-16.1V-607.2z M509.1-559.3l-7.4-14.8H527v14.8H509.1z"/>
	<path class="st7" d="M558.2-607.1l16.7,33.5l-12.3,10.3L539-607.1H558.2z M593.8-607.1h19.5l-29,53.4v26.5h-16.7v-26.5l-0.1-0.2
		l8.4-17.2L593.8-607.1z"/>
</g>
<g class="st6">
	<path class="st7" d="M236.5-694.3h41.3v10.4h-29v50.8h-12.3L236.5-694.3L236.5-694.3z M256.7-657.6L251-669h19.4v11.3h-13.7V-657.6
		z"/>
	<path class="st7" d="M306.7-695c4.3,0,8.3,0.8,12,2.5s7,3.9,9.7,6.7s4.9,6.1,6.4,10c1.5,3.8,2.3,7.9,2.3,12.2
		c0,3.7-0.6,7.2-1.7,10.5s-2.7,6.3-4.7,9s-4.5,5-7.3,6.9s-5.9,3.2-9.3,4.1l-6.1-10.4c2.4-0.2,4.7-0.8,6.7-2c2-1.1,3.7-2.6,5.2-4.4
		c1.5-1.8,2.6-3.8,3.4-6.2s1.2-4.8,1.2-7.5s-0.5-5.3-1.4-7.8c-0.9-2.4-2.1-4.6-3.7-6.4c-1.6-1.8-3.4-3.2-5.6-4.3
		c-2.2-1-4.6-1.6-7.2-1.6s-5,0.5-7.2,1.6c-2.2,1-4.1,2.5-5.7,4.3s-2.9,3.9-3.8,6.4c-0.9,2.4-1.4,5-1.4,7.8c0,2.7,0.5,5.3,1.4,7.8
		c0.9,2.4,2.2,4.6,3.8,6.4c1.6,1.8,3.5,3.2,5.7,4.3c2.2,1,4.6,1.6,7.2,1.6v11.3c-4.3,0-8.3-0.8-12-2.4c-3.7-1.6-7-3.9-9.7-6.7
		c-2.7-2.9-4.9-6.2-6.4-10s-2.3-7.9-2.3-12.2s0.8-8.4,2.3-12.2s3.7-7.1,6.4-10c2.7-2.8,6-5.1,9.7-6.7
		C298.4-694.2,302.4-695,306.7-695z"/>
	<path class="st7" d="M355.2-694.2l39.4,56.7v4.4h-12.7l-26.6-38.4v38.4h-12.7v-61.1L355.2-694.2L355.2-694.2z M381.8-694.2h12.7
		v45.7l-12.7-9.2V-694.2z"/>
	<path class="st7" d="M430.3-694.2v61.1h-12.6v-50.5h-18v-10.7h30.6V-694.2z M432.2-694.2h16.2v10.7h-10.8L432.2-694.2z"/>
</g>
</svg>
